<svg width="27" height="27" viewBox="0 0 27 27" fill="none" xmlns="http://www.w3.org/2000/svg">
<path d="M14.5945 2.7V0C20.8055 0.675 25.6969 5.6565 26.39 11.9475C27.1897 19.359 21.925 26.028 14.5945 26.838V24.138C19.446 23.5305 23.2579 19.656 23.871 14.742C24.0436 13.3342 23.9405 11.9057 23.5676 10.5383C23.1947 9.17086 22.5593 7.89132 21.6977 6.77287C20.8361 5.65442 19.7653 4.71901 18.5464 4.02014C17.3276 3.32128 15.9846 2.87268 14.5945 2.7ZM4.82484 2.97C6.8452 1.28081 9.32035 0.24601 11.9288 0V2.781C10.0229 3.051 8.22355 3.834 6.73078 5.049L4.82484 2.97ZM0 12.15C0.246698 9.50644 1.27304 6.99925 2.94555 4.9545L4.8515 6.885C3.66962 8.40952 2.9146 10.2281 2.66566 12.15H0ZM2.95888 22.0455C1.30308 19.9906 0.278925 17.4888 0.0133283 14.85H2.67899C2.91889 16.767 3.67861 18.5895 4.8515 20.115L2.95888 22.0455ZM4.82484 23.949L6.67747 22.0995H6.73078C8.23688 23.2875 10.0362 24.057 11.9288 24.3V27C9.31647 26.7165 6.83741 25.65 4.82484 23.949ZM13.2616 20.25L15.3409 15.633L19.9258 13.5L15.3409 11.394L13.2616 6.75L11.1691 11.394L6.5975 13.5L11.1691 15.633L13.2616 20.25Z" fill="white"/>
</svg>
